<svg width="128" height="24" viewBox="0 0 128 24" fill="none" xmlns="http://www.w3.org/2000/svg">
<rect x="0.5" y="0.5" width="127" height="23" rx="11.5" stroke="black"/>
<path d="M13.1 19.18C9.7 19.18 8.08 17.44 8 14.8H9.78C9.88 16.5 10.9 17.56 13.1 17.56C15.14 17.56 16.32 16.76 16.32 15.16C16.32 13.8 15.54 13.2 14.02 12.88L11.98 12.44C9.76 11.96 8.48 10.8 8.48 8.66C8.48 6.4 10.22 4.82 13.12 4.82C15.92 4.82 17.88 6.5 17.9 8.98H16.12C16.04 7.46 15.04 6.46 13.08 6.46C11.42 6.46 10.28 7.18 10.28 8.66C10.28 9.8 10.98 10.4 12.46 10.74L14.36 11.18C16.76 11.74 18.14 12.86 18.14 15.16C18.14 17.66 16.14 19.18 13.1 19.18ZM24.0661 19V6.66H19.9461V5H29.9861V6.66H25.8661V19H24.0661ZM37.1184 19.18C33.5984 19.18 31.5984 17.02 31.5984 13.2V10.8C31.5984 6.98 33.5984 4.82 37.1184 4.82C40.6384 4.82 42.6384 6.98 42.6384 10.8V13.2C42.6384 17.02 40.6384 19.18 37.1184 19.18ZM33.3984 13.2C33.3984 15.82 34.4184 17.48 37.1184 17.48C39.8184 17.48 40.8384 15.82 40.8384 13.2V10.8C40.8384 8.18 39.8184 6.52 37.1184 6.52C34.4184 6.52 33.3984 8.18 33.3984 10.8V13.2ZM45.8359 19V5H51.1759C53.7759 5 55.4159 6.38 55.4159 8.76C55.4159 11.4 53.7759 12.62 51.1759 12.62H48.1559L56.1559 19H53.2959L47.5959 14.34V19H45.8359ZM47.5959 10.98H51.0759C52.5759 10.98 53.5959 10.46 53.5959 8.78C53.5959 7.14 52.5759 6.6 51.0759 6.6H47.5959V10.98ZM61.4625 19V12.6H60.7825L56.6625 5H58.6225L62.3825 12.1L66.1225 5H68.0425L63.9425 12.6H63.2625V19H61.4625ZM73.4606 19V6.66H69.3406V5H79.3806V6.66H75.2606V19H73.4606ZM81.4859 19V17.34H84.4059V6.66H81.4859V5H89.1259V6.66H86.2059V17.34H89.1259V19H81.4859ZM97.8152 19L94.2952 5.5V19H92.5352V5H95.8752L99.5152 18.5L103.155 5H106.495V19H104.735V5.5L101.215 19H97.8152ZM110.504 19V5H119.104V6.64H112.304V10.96H118.484V12.6H112.304V17.36H119.104V19H110.504Z" fill="black"/>
</svg>
